Coordinates
version=1
nRows=6
nColumns=46
inDegrees=yes

Units are S.I. units (second, meters, Newtons, ...)
Angles are in degrees.

endheader
time	pelvis_tilt	pelvis_list	pelvis_rotation	pelvis_tx	pelvis_ty	pelvis_tz	bb_angle	bb_tx	bb_ty	bb_tz	hip_flexion_r	hip_adduction_r	hip_rotation_r	knee_angle_r	knee_angle_r_beta	ankle_angle_r	subtalar_angle_r	mtp_angle_r	crank_angle_r	hip_flexion_l	hip_adduction_l	hip_rotation_l	knee_angle_l	knee_angle_l_beta	ankle_angle_l	subtalar_angle_l	mtp_angle_l	crank_angle_l	lumbar_extension	lumbar_bending	lumbar_rotation	arm_flex_r	arm_add_r	arm_rot_r	elbow_flex_r	pro_sup_r	wrist_flex_r	wrist_dev_r	arm_flex_l	arm_add_l	arm_rot_l	elbow_flex_l	pro_sup_l	wrist_flex_l	wrist_dev_l
      5.00500000	     -1.32950134	     -4.85535551	      1.97692233	      0.05626425	      1.18566945	     -0.25746226	      0.00000000	      0.50000000	      0.00000000	      0.25000000	     69.69115164	      0.14609167	      4.23041448	    108.09011061	      1.88652832	    -19.29162429	     -9.26998719	      0.00000000	      0.00000000	     25.04782055	     -8.30114954	     -5.71425255	     24.66147618	      0.43042396	     -1.91842762	     10.39407322	      0.00000000	      0.00000000	    -68.12023402	      9.75471116	      5.26103777	     89.20594477	     -7.38450522	     32.16284530	     42.18184763	     38.18357217	      0.00000000	      0.00000000	     88.90766790	    -17.82903550	     52.99984529	     43.10561895	     33.91537248	      0.00000000	      0.00000000
      5.01000000	     -1.25563652	     -5.45028290	      1.38530185	      0.05723002	      1.18600406	     -0.25874344	      0.00000000	      0.50000000	      0.00000000	      0.25000000	     70.70074154	      0.79856476	      4.12692452	    108.53430962	      1.89428105	    -18.66387754	     -8.46230901	      0.00000000	      0.00000000	     23.78650412	     -9.26147255	     -7.13614925	     23.63343638	      0.41248128	     -2.46363377	     13.71501750	      0.00000000	      0.00000000	    -68.24284109	     10.08100570	      5.49198071	     89.28790665	     -6.46698614	     32.51972755	     41.81253932	     38.03385932	      0.00000000	      0.00000000	     88.70717138	    -18.83048837	     53.19692008	     43.25348279	     34.11126040	      0.00000000	      0.00000000
      5.01500000	     -1.36536896	     -5.88865403	      1.07498279	      0.05768166	      1.18624377	     -0.26079325	      0.00000000	      0.50000000	      0.00000000	      0.25000000	     71.88037416	      1.03746629	      4.11762348	    108.85673671	      1.89990847	    -18.05676386	     -7.55169009	      0.00000000	      0.00000000	     22.92988096	     -9.59341750	     -7.01468661	     23.23910690	      0.40559893	     -2.49101955	     11.47792515	      0.00000000	      0.00000000	    -68.19029810	     10.63140080	      5.41669563	     89.38010124	     -5.45542405	     32.76095389	     41.38956493	     37.77016218	      0.00000000	      0.00000000	     88.48979868	    -19.95221652	     53.36925077	     43.62268973	     34.40408957	      0.00000000	      0.00000000
      5.02000000	     -1.48248645	     -6.45504288	      0.61076922	      0.05810483	      1.18669850	     -0.26223117	      0.00000000	      0.50000000	      0.00000000	      0.25000000	     72.95384994	      1.55222907	      3.91825342	    108.95874564	      1.90168886	    -17.77385662	     -7.16536270	      0.00000000	      0.00000000	     22.13784460	    -10.22098224	     -7.31914133	     22.82716874	      0.39840925	     -2.69110046	     11.46808710	      0.00000000	      0.00000000	    -68.23049167	     11.03850701	      5.82840635	     89.42105267	     -4.88469534	     32.88010087	     41.47207996	     37.73569042	      0.00000000	      0.00000000	     88.29972205	    -20.49249318	     53.32865714	     43.53415072	     34.43441866	      0.00000000	      0.00000000
      5.02500000	     -1.52992417	     -6.90165260	      0.03160585	      0.05851224	      1.18734141	     -0.26326693	      0.00000000	      0.50000000	      0.00000000	      0.25000000	     73.87472462	      2.17082438	      3.85921579	    108.95661093	      1.90165160	    -17.22099164	     -6.57680648	      0.00000000	      0.00000000	     21.34641051	    -10.82401609	     -7.90440680	     22.69287425	      0.39606537	     -2.72406433	     11.62306992	      0.00000000	      0.00000000	    -68.37695742	     11.34815193	      5.42441230	     89.51499354	     -3.03336655	     32.79530252	     40.71128585	     36.86714252	      0.00000000	      0.00000000	     87.92574687	    -22.59604962	     53.26804931	     44.87793189	     35.23339869	      0.00000000	      0.00000000
      5.03000000	     -1.68005633	     -7.37995708	     -0.49398188	      0.05860517	      1.18808930	     -0.26423733	      0.00000000	      0.50000000	      0.00000000	      0.25000000	     74.77927620	      2.78710709	      3.69112847	    108.76362332	      1.89828333	    -16.71372840	     -6.38048309	      0.00000000	      0.00000000	     20.77915083	    -11.32816778	     -7.93484699	     22.67365729	      0.39572997	     -2.78918247	     11.07126052	      0.00000000	      0.00000000	    -68.46315172	     11.55290056	      5.79769603	     89.55084643	     -2.54424813	     32.86558076	     40.94512123	     36.84804074	      0.00000000	      0.00000000	     87.83841313	    -23.02871012	     53.18576408	     44.68482456	     35.23146415	      0.00000000	      0.00000000
